HIERARCHY
ROOT pelvis
{
  OFFSET 0 100 0
  CHANNELS 6 Xposition Yposition Zposition Zrotation Xrotation Yrotation
  JOINT pelvis_right_femur
  {
    OFFSET -10.78128 -3.44521 -0.5502486
    CHANNELS 3 Zrotation Xrotation Yrotation
    JOINT right_femur_tibia
    {
      OFFSET -0.8047443 -44.0398 -0.1307829
      CHANNELS 3 Zrotation Xrotation Yrotation
      JOINT right_tibia_foot
      {
        OFFSET 3.006224 -47.83518 -5
        CHANNELS 3 Zrotation Xrotation Yrotation
        End Site
        {
          OFFSET 0 -5 15
        }
      }
    }
  }
  JOINT pelvis_left_femur
  {
    OFFSET 10.78128 -3.44521 -0.5502486
    CHANNELS 3 Zrotation Xrotation Yrotation
    JOINT left_femur_tibia
    {
      OFFSET 0.8047443 -44.0398 -0.1307829
      CHANNELS 3 Zrotation Xrotation Yrotation
      JOINT left_tibia_foot
      {
        OFFSET -4.370144 -48.10324 -4.275266
        CHANNELS 3 Zrotation Xrotation Yrotation
        End Site
        {
          OFFSET 0 -5 15
        }
      }
    }
  }
  JOINT pelvis_spine1
  {
    OFFSET 0 6.468898 -3.129235
    CHANNELS 3 Zrotation Xrotation Yrotation
    JOINT spine1
    {
      OFFSET 0 23.15396 4.99043
      CHANNELS 3 Zrotation Xrotation Yrotation
      JOINT spine2
      {
        OFFSET 0 20.79997 -5.064912
        CHANNELS 3 Zrotation Xrotation Yrotation
        JOINT neck
        {
          OFFSET 0 14.38658 9.616178
          CHANNELS 3 Zrotation Xrotation Yrotation
          End Site
          {
            OFFSET 0 20 0
          }
        }
      }
      JOINT right_manubrium
      {
        OFFSET -5.722621 16.35077 3.967754
        CHANNELS 3 Zrotation Xrotation Yrotation
        JOINT right_clavicle
        {
          OFFSET -13.16364 1.694482 -4.693211
          CHANNELS 3 Zrotation Xrotation Yrotation
          JOINT right_humerus
          {
            OFFSET -28.5034 -0.3100689 -2.792744
            CHANNELS 3 Zrotation Xrotation Yrotation
            JOINT right_radius
            {
              OFFSET -25.15693 0.02248979 -1.271978
              CHANNELS 3 Zrotation Xrotation Yrotation
              End Site
              {
                OFFSET -15 0 0
              }
            }
          }
        }
      }
      JOINT left_manubrium
      {
        OFFSET 5.722621 16.35077 3.967754
        CHANNELS 3 Zrotation Xrotation Yrotation
        JOINT left_clavicle
        {
          OFFSET 13.16364 1.694482 -4.693211
          CHANNELS 3 Zrotation Xrotation Yrotation
          JOINT left_humerus
          {
            OFFSET 29.39168 -1.063119 -2.237045
            CHANNELS 3 Zrotation Xrotation Yrotation
            JOINT left_radius
            {
              OFFSET 24.59957 -0.9528479 0.9047498
              CHANNELS 3 Zrotation Xrotation Yrotation
              End Site
              {
                OFFSET 15 -0 -0
              }
            }
          }
        }
      }
    }
  }
}
MOTION
Frames: 17
Frame Time: 0.0416666666667
36.10418 98.58824 256.5657 2.237965 -8.738456 -2.080268 -0.6181967 19.91167 7.126625 -0 21.76857 -0 6.786422 -12.97516 -0.5872892 -1.737244 -21.12708 -5.850891 -0 28.57308 -0 -6.98653 -6.716944 19.1369 -1.500752 -0.7112535 9.666039 -1.699946 10.11711 -2.121773 2.610735 22.14146 5.044389 1.524216 -14.49423 7.624718 1.716666 -20.81712 11.18678 81.19767 21.98058 -6.593526 -0 0 25.15873 -25.83528 14.03996 13.14028 4.276245 -14.30941 -3.381773 -93.00173 22.82078 24.45472 0 0 -10.16963 -3.075634 6.209031 17.07063
37.05854 98.57258 263.1692 2.369213 -8.881848 -1.77988 -1.052035 18.71316 6.683341 -0 26.59384 -0 6.965416 -12.14086 -1.15225 -2.473367 -19.16821 -6.511603 -0 26.65979 -0 -6.85998 -7.415633 18.76769 -1.734656 -0.7584828 9.281009 -1.778716 9.824831 -2.152434 2.655319 22.30778 5.041445 1.346109 -14.37233 7.838259 1.738141 -20.39758 10.93706 81.6177 21.93051 -6.796367 -0 0 24.57821 -25.62238 13.94218 12.95909 4.180845 -14.04846 -3.396092 -92.51416 23.14604 23.87663 0 0 -9.93955 -3.039074 6.322524 17.10335
38.03231 98.79694 269.7227 2.546791 -9.039653 -1.202928 -1.426039 16.62393 6.125442 -0 31.21057 -0 6.982341 -11.14514 -1.902691 -3.307443 -16.29901 -7.189295 -0 25.34625 -0 -6.719934 -8.203789 18.30684 -2.007002 -0.8046769 8.762049 -1.777099 9.576072 -2.307124 2.693879 22.52916 5.051729 1.170932 -14.21386 8.064245 1.821477 -19.74887 10.67607 82.29605 22.02035 -7.462464 -0 0 23.47573 -25.25916 13.88797 12.64016 4.115767 -14.01134 -3.463964 -91.71792 23.51106 22.71411 0 0 -10.1335 -2.875294 6.51263 16.96446
39.01186 99.22667 276.1738 2.740222 -9.173517 -0.3862921 -1.704612 13.67584 5.490184 -0 34.97881 -0 6.817961 -10.17215 -2.759902 -4.105044 -12.73824 -7.812438 -0 24.33679 -0 -6.580003 -9.08819 17.76775 -2.284493 -0.8136436 8.109102 -1.698504 9.348513 -2.590553 2.729971 22.79064 5.068521 1.001443 -14.02116 8.295165 1.904615 -18.93301 10.39964 83.18012 22.21552 -8.499709 -0 0 22.00949 -24.76429 13.85793 12.21594 4.108116 -14.19996 -3.577725 -90.63871 23.89246 20.98691 0 0 -10.77139 -2.579664 6.783375 16.63423
39.98162 99.76916 282.4835 2.918149 -9.249992 0.6167708 -1.865581 9.941426 4.819919 -0 37.38012 -0 6.457429 -9.375823 -3.650749 -4.76483 -8.707299 -8.340935 -0 23.36242 -0 -6.45424 -10.0671 17.16426 -2.536035 -0.7586294 7.328998 -1.549519 9.120081 -3.000493 2.766834 23.07525 5.084965 0.840099 -13.80074 8.523151 1.934318 -18.01066 10.10667 84.21634 22.47985 -9.812018 -0 0 20.33143 -24.15842 13.83367 11.71841 4.178365 -14.60442 -3.726858 -89.31539 24.26026 18.74036 0 0 -11.84799 -2.152032 7.133795 16.10285
40.92397 100.3063 288.6314 3.059745 -9.252514 1.746323 -1.910974 5.576349 4.155309 -0 38.1901 -0 5.90037 -8.836887 -4.524904 -5.240804 -4.408483 -8.76732 -0 22.30178 -0 -6.355035 -11.12084 16.51484 -2.742406 -0.633771 6.446991 -1.341159 8.87726 -3.517763 2.80782 23.36725 5.09365 0.6901458 -13.56427 8.739337 1.884796 -17.02979 9.803103 85.35306 22.78054 -11.31096 -0 0 18.55276 -23.4617 13.80142 11.17024 4.33145 -15.19694 -3.896885 -87.80891 24.58227 16.06393 0 0 -13.31294 -1.602106 7.555523 15.38007
41.8205 100.7305 294.6227 3.15849 -9.17927 2.9413 -1.860668 0.8539743 3.533092 -0 37.46602 -0 5.163038 -8.567952 -5.353013 -5.531807 -0.04284335 -9.101285 -0 21.2179 -0 -6.294347 -12.20591 15.84662 -2.89707 -0.4566158 5.514164 -1.08923 8.615763 -4.100539 2.857861 23.65081 5.084182 0.5573565 -13.33109 8.931162 1.758144 -16.02681 9.502927 86.53257 23.0883 -12.90918 -0 0 16.74368 -22.69238 13.75076 10.58175 4.556678 -15.92884 -4.066707 -86.20977 24.8314 13.10539 0 0 -15.06337 -0.9512131 8.034486 14.49601
42.65448 100.9724 300.4938 3.21977 -9.037082 4.140979 -1.739494 -3.85058 2.984054 -0 35.45853 -0 4.274942 -8.536421 -6.118968 -5.663388 4.179763 -9.355386 -0 20.32258 -0 -6.283498 -13.25821 15.19514 -3.003295 -0.2624828 4.603394 -0.8128234 8.338358 -4.688283 2.923747 23.90932 5.04278 0.4502437 -13.12738 9.081976 1.575865 -15.03088 9.225773 87.68741 23.3785 -14.51567 -0 0 14.94567 -21.86664 13.67275 9.953347 4.832495 -16.73442 -4.209546 -84.63138 24.99487 10.06238 0 0 -16.95468 -0.2303097 8.554164 13.49612
43.41355 101.0079 306.3076 3.25232 -8.83863 5.285702 -1.564425 -8.168977 2.529646 -0 32.50044 -0 3.27146 -8.690629 -6.814738 -5.670572 8.072462 -9.539549 -0 19.86153 -0 -6.32865 -14.21073 14.59673 -3.06901 -0.08850873 3.785444 -0.5299478 8.052518 -5.221555 3.011255 24.12964 4.957281 0.3767735 -12.97718 9.176547 1.365693 -14.06617 8.989971 88.7536 23.6356 -16.04738 -0 0 13.18508 -20.99997 13.5605 9.283891 5.134132 -17.54709 -4.301698 -83.18023 25.07892 7.132822 0 0 -18.83715 0.5269167 9.098599 12.43039
44.09109 100.8498 312.138 3.259757 -8.605494 6.319002 -1.337324 -11.83484 2.184153 -0 28.93819 -0 2.187897 -8.979164 -7.43564 -5.584315 11.49419 -9.6616 -0 20.01753 -0 -6.426485 -15.00465 14.08563 -3.09993 0.04202026 3.105919 -0.2543815 7.769824 -5.660465 3.121455 24.3079 4.822796 0.3407502 -12.8931 9.206684 1.1519 -13.15594 8.807078 89.68424 23.85504 -17.43702 -0 0 11.48872 -20.11001 13.41008 8.581017 5.437424 -18.31114 -4.331487 -81.93523 25.10482 4.475315 0 0 -20.57968 1.288134 9.653327 11.34745
44.68662 100.539 318.0505 3.238267 -8.376319 7.190803 -1.042551 -14.66614 1.964312 -0 25.15867 -0 1.060512 -9.355024 -7.973245 -5.42552 14.31794 -9.728385 -0 20.91899 -0 -6.563038 -15.57568 13.70543 -3.093412 0.1244211 2.583233 0.002902842 7.508673 -5.985424 3.24891 24.45301 4.643025 0.3412065 -12.87412 9.171268 0.9556119 -12.33171 8.682691 90.4455 24.04082 -18.61862 -0 0 9.900824 -19.2205 13.21977 7.868153 5.713898 -18.97469 -4.301329 -80.96098 25.10328 2.226647 0 0 -22.04714 2.016522 10.20394 10.3026
45.20527 100.1421 324.0859 3.178842 -8.210754 7.86019 -0.648863 -16.50913 1.895354 -0 21.62802 -0 -0.07055315 -9.773441 -8.410307 -5.204908 16.39305 -9.745815 -0 22.6835 -0 -6.715044 -15.83922 13.51929 -3.036301 0.1697656 2.217321 0.2311825 7.296056 -6.189596 3.382096 24.58642 4.428586 0.373637 -12.90834 9.073634 0.7983245 -11.63928 8.619339 91.00667 24.20228 -19.51166 -0 0 8.491411 -18.36312 12.98917 7.185774 5.925658 -19.47924 -4.225403 -80.32706 25.11151 0.5326014 0 0 -23.07333 2.664283 10.73531 9.366311
45.65546 99.74824 330.2526 3.072453 -8.172154 8.296416 -0.1262372 -17.24539 1.998326 -0 18.80199 -0 -1.16572 -10.19638 -8.725499 -4.927431 17.57239 -9.718266 -0 25.39177 -0 -6.857002 -15.71309 13.59309 -2.912023 0.1969092 1.997818 0.4206439 7.159981 -6.274056 3.5073 24.73386 4.193282 0.4318168 -12.979 8.919878 0.698862 -11.12774 8.616925 91.34194 24.3506 -20.0361 -0 0 7.338432 -17.57202 12.71987 6.5807 6.03405 -19.77001 -4.123377 -80.09651 25.16466 -0.4734335 0 0 -23.49477 3.181659 11.2346 8.610408
46.04559 99.45647 336.533 2.915801 -8.296735 8.478899 0.5257075 -16.84243 2.264456 -0 16.95119 -0 -2.194709 -10.60227 -8.903291 -4.599196 17.77358 -9.648867 -0 28.99395 -0 -6.970709 -15.16561 13.96182 -2.713842 0.2234903 1.910649 0.5645222 7.115815 -6.245179 3.613689 24.91243 3.950529 0.5095505 -13.0719 8.718662 0.6652365 -10.83058 8.67154 91.43973 24.49412 -20.14389 -0 0 6.498967 -16.87719 12.41599 6.09194 6.018058 -19.81931 -4.011898 -80.29771 25.28048 -0.7232809 0 0 -23.22105 3.535729 11.69451 8.080579
46.38248 99.35161 342.8909 2.715697 -8.575693 8.399512 1.259418 -15.36786 2.639828 -0 16.06752 -0 -3.138032 -10.99171 -8.935415 -4.232846 16.98523 -9.542001 -0 33.21451 -0 -7.045473 -14.24468 14.6146 -2.454352 0.2633577 1.943799 0.6581062 7.158403 -6.110581 3.694429 25.12365 3.713761 0.6013957 -13.17909 8.482222 0.689205 -10.7629 8.775048 91.30266 24.63528 -19.82415 -0 0 6.006536 -16.30988 12.0826 5.752019 5.885395 -19.63628 -3.899983 -80.91716 25.44925 -0.2292881 0 0 -22.26139 3.717784 12.11218 7.785154
46.67263 99.47441 349.2776 2.492896 -8.954019 8.068551 1.981285 -12.96865 3.029524 -0 15.868 -0 -3.982316 -11.38798 -8.815551 -3.849882 15.23012 -9.406661 -0 37.49792 -0 -7.06876 -13.08069 15.49968 -2.168521 0.3288708 2.091072 0.6958969 7.261469 -5.874982 3.744681 25.35324 3.499256 0.7025409 -13.29895 8.227564 0.7450648 -10.93127 8.915281 90.94018 24.7701 -19.08729 -0 0 5.887927 -15.91424 11.72359 5.598323 5.673357 -19.26268 -3.789464 -81.90815 25.63438 0.9338209 0 0 -20.70844 3.73915 12.4861 7.700443
46.92466 99.80119 355.6375 2.279517 -9.349101 7.518749 2.582761 -9.837604 3.32812 -0 15.90656 -0 -4.717774 -11.82661 -8.5384 -3.476831 12.54942 -9.256757 -0 41.11936 -0 -7.021194 -11.85181 16.54119 -1.904843 0.4307076 2.35037 0.6718545 7.385985 -5.540653 3.760551 25.57709 3.325232 0.8088383 -13.43414 7.974461 0.7965289 -11.3378 9.077575 90.36594 24.88938 -17.95549 -0 0 6.166696 -15.7426 11.34122 5.671179 5.437002 -18.75914 -3.678223 -83.2024 25.78397 2.653895 0 0 -18.70337 3.623979 12.81482 7.78312
